# xmcd
#
# Track frame offsets:
#	150
#	2548
#	16305
#	36443
#	48131
#	65113
#	85001
#	105393
#	129426
#	163006
#	195425
#	209950
#	244717
#	254328
#	270758
#
# Disc length: 3861 seconds
#
# Revision: 0
# Processed by: cddbd v1.5.1PL0 Copyright (c) Steve Scherf et al.
# Submitted via: EasyCDDAExtractor 8.0.2.1
#
DISCID=c10f130f
DTITLE=Alice Cooper - Utica 29-12-73
DYEAR=1973
DGENRE=Hard Rock
TTITLE0=Introduction
TTITLE1=Hello Hooray
TTITLE2=Billion Dollar Babies
TTITLE3=Elected
TTITLE4=I'm Eighteen
TTITLE5=Big Apple Dreaming
TTITLE6=Muscle Of Love
TTITLE7=Hard Hearted Alice
TTITLE8=My Stars
TTITLE9=Unfinished Sweet
TTITLE10=Sick Things
TTITLE11=I Love The Dead
TTITLE12=Segue Music
TTITLE13=School's Out
TTITLE14=Working Up A Sweat
EXTD=
EXTT0=
EXTT1=
EXTT2=
EXTT3=
EXTT4=
EXTT5=
EXTT6=
EXTT7=
EXTT8=
EXTT9=
EXTT10=
EXTT11=
EXTT12=
EXTT13=
EXTT14=
PLAYORDER=
